<svg id="Warstwa_1" data-name="Warstwa 1" xmlns="http://www.w3.org/2000/svg" width="90.58mm" height="62.75mm" viewBox="0 0 256.76 177.88">
  <defs>
    <style>
      .cls-1 {
        fill: #ad8529;
      }

      .cls-2 {
        fill: #fff;
      }
    </style>
  </defs>
  <g>
    <polygon class="cls-1" points="134.78 99.2 93.28 58.64 93.28 0 175.89 0 175.89 58.64 134.78 99.2"/>
    <g>
      <path class="cls-1" d="M79,255.36c0,2.07-1.57,3.26-4.63,3.26H68.64V246.54h5.42c2.77,0,4.33,1.18,4.33,3.12a2.88,2.88,0,0,1-1.62,2.7A2.92,2.92,0,0,1,79,255.36Zm-8.66-7.42v3.86H73.9c1.76,0,2.76-.65,2.76-1.93s-1-1.93-2.76-1.93Zm6.91,7.28c0-1.4-1-2-3-2h-4v4h4C76.25,257.22,77.28,256.62,77.28,255.22Z" transform="translate(-68.64 -101.58)"/>
      <path class="cls-1" d="M82.21,246.54h1.73v12.08H82.21Z" transform="translate(-68.64 -101.58)"/>
      <path class="cls-1" d="M88,253.41v-6.87H89.7v6.8c0,2.67,1.23,3.88,3.4,3.88s3.42-1.21,3.42-3.88v-6.8h1.67v6.87c0,3.5-1.92,5.35-5.11,5.35S88,256.91,88,253.41Z" transform="translate(-68.64 -101.58)"/>
      <path class="cls-1" d="M110.31,258.62l-2.6-3.71c-.24,0-.5,0-.76,0h-3v3.68h-1.73V246.54H107c3.14,0,5,1.59,5,4.21a3.81,3.81,0,0,1-2.66,3.81l2.86,4.06Zm0-7.87c0-1.72-1.15-2.71-3.36-2.71H104v5.44h2.93C109.11,253.48,110.26,252.48,110.26,250.75Z" transform="translate(-68.64 -101.58)"/>
      <path class="cls-1" d="M114.31,252.58a6.42,6.42,0,1,1,6.44,6.18A6.14,6.14,0,0,1,114.31,252.58Zm11.11,0a4.69,4.69,0,1,0-4.67,4.64A4.53,4.53,0,0,0,125.42,252.58Z" transform="translate(-68.64 -101.58)"/>
      <path class="cls-1" d="M135.46,246.54h5.09c3.88,0,6.52,2.45,6.52,6s-2.64,6-6.52,6h-5.09Zm5,10.58c3,0,4.9-1.83,4.9-4.54s-1.92-4.54-4.9-4.54h-3.27v9.08Z" transform="translate(-68.64 -101.58)"/>
      <path class="cls-1" d="M159,257.12v1.5h-8.76V246.54h8.52V248H152v3.71H158v1.47H152v3.9Z" transform="translate(-68.64 -101.58)"/>
      <path class="cls-1" d="M164.7,248h-4.14v-1.5h10V248h-4.13v10.58H164.7Z" transform="translate(-68.64 -101.58)"/>
      <path class="cls-1" d="M181.7,257.12v1.5h-8.76V246.54h8.52V248h-6.79v3.71h6.05v1.47h-6.05v3.9Z" transform="translate(-68.64 -101.58)"/>
      <path class="cls-1" d="M189,253.25l-2.21,2.25v3.12H185V246.54h1.72v6.75l6.56-6.75h2L190.11,252l5.48,6.64h-2Z" transform="translate(-68.64 -101.58)"/>
      <path class="cls-1" d="M199.59,248h-4.14v-1.5h10V248H201.3v10.58h-1.71Z" transform="translate(-68.64 -101.58)"/>
      <path class="cls-1" d="M212.32,254.44v4.18h-1.71v-4.21l-4.79-7.87h1.84l3.87,6.37,3.88-6.37h1.7Z" transform="translate(-68.64 -101.58)"/>
      <path class="cls-1" d="M236.07,246.54l-4,12.08h-1.82L226.93,249l-3.29,9.65h-1.85l-4-12.08h1.78l3.26,9.82,3.4-9.82h1.59l3.33,9.87,3.32-9.87Z" transform="translate(-68.64 -101.58)"/>
      <path class="cls-1" d="M238.69,246.54h1.73v12.08h-1.73Z" transform="translate(-68.64 -101.58)"/>
      <path class="cls-1" d="M243.45,257.24l.64-1.35a6.23,6.23,0,0,0,4,1.4c2.08,0,3-.81,3-1.86,0-3-7.31-1.09-7.31-5.58,0-1.86,1.44-3.45,4.62-3.45a7.11,7.11,0,0,1,3.88,1.07l-.57,1.38a6.24,6.24,0,0,0-3.31-1c-2.05,0-2.93.86-2.93,1.92,0,3,7.31,1.1,7.31,5.53,0,1.85-1.48,3.44-4.67,3.44A7.23,7.23,0,0,1,243.45,257.24Z" transform="translate(-68.64 -101.58)"/>
      <path class="cls-1" d="M258,248h-4.14v-1.5h10V248h-4.14v10.58H258Z" transform="translate(-68.64 -101.58)"/>
      <path class="cls-1" d="M270.74,254.44v4.18H269v-4.21l-4.79-7.87h1.84l3.87,6.37,3.88-6.37h1.7Z" transform="translate(-68.64 -101.58)"/>
      <path class="cls-1" d="M276.29,252.58a6.11,6.11,0,0,1,6.4-6.18,6,6,0,0,1,4.59,1.88l-1.12,1.09a4.48,4.48,0,0,0-3.4-1.43,4.64,4.64,0,1,0,0,9.28,4.5,4.5,0,0,0,3.4-1.45l1.12,1.09a6,6,0,0,1-4.6,1.9A6.11,6.11,0,0,1,276.29,252.58Z" transform="translate(-68.64 -101.58)"/>
      <path class="cls-1" d="M299.29,257.12v1.5H289.2v-1.17l7.59-9.41h-7.47v-1.5h9.74v1.18l-7.55,9.4Z" transform="translate(-68.64 -101.58)"/>
      <path class="cls-1" d="M312.5,246.54v12.08h-1.42l-7.24-9v9h-1.73V246.54h1.42l7.24,9v-9Z" transform="translate(-68.64 -101.58)"/>
      <path class="cls-1" d="M325.4,257.12v1.5h-8.76V246.54h8.52V248h-6.8v3.71h6.06v1.47h-6.06v3.9Z" transform="translate(-68.64 -101.58)"/>
      <path class="cls-1" d="M76.26,273.28a6.42,6.42,0,1,1,6.44,6.18A6.14,6.14,0,0,1,76.26,273.28Zm11.11,0a4.69,4.69,0,1,0-4.67,4.64A4.53,4.53,0,0,0,87.37,273.28Z" transform="translate(-68.64 -101.58)"/>
      <path class="cls-1" d="M91.27,273.28a6.11,6.11,0,0,1,6.4-6.18,6,6,0,0,1,4.59,1.88l-1.12,1.09a4.48,4.48,0,0,0-3.4-1.43,4.64,4.64,0,1,0,0,9.28,4.5,4.5,0,0,0,3.4-1.45l1.12,1.09a6,6,0,0,1-4.61,1.9A6.11,6.11,0,0,1,91.27,273.28Z" transform="translate(-68.64 -101.58)"/>
      <path class="cls-1" d="M115.63,267.24v12.08H113.9v-5.39H107v5.39h-1.73V267.24H107v5.19h6.93v-5.19Z" transform="translate(-68.64 -101.58)"/>
      <path class="cls-1" d="M127.84,279.32l-2.61-3.71c-.24,0-.5,0-.76,0h-3v3.68h-1.73V267.24h4.71c3.14,0,5,1.59,5,4.21a3.8,3.8,0,0,1-2.66,3.81l2.87,4.06Zm0-7.87c0-1.72-1.16-2.71-3.37-2.71h-2.93v5.44h2.93C126.63,274.18,127.79,273.18,127.79,271.45Z" transform="translate(-68.64 -101.58)"/>
      <path class="cls-1" d="M131.84,273.28a6.42,6.42,0,1,1,6.43,6.18A6.13,6.13,0,0,1,131.84,273.28Zm11.11,0a4.7,4.7,0,1,0-4.68,4.64A4.54,4.54,0,0,0,143,273.28Z" transform="translate(-68.64 -101.58)"/>
      <path class="cls-1" d="M158.21,267.24v12.08H156.8l-7.25-9v9h-1.72V267.24h1.41l7.25,9v-9Z" transform="translate(-68.64 -101.58)"/>
      <path class="cls-1" d="M170.05,276.3h-6.42l-1.33,3h-1.78L166,267.24h1.71l5.49,12.08h-1.82Zm-.61-1.38-2.6-5.92-2.61,5.92Z" transform="translate(-68.64 -101.58)"/>
      <path class="cls-1" d="M179.67,273.28a6.42,6.42,0,1,1,6.43,6.18A6.13,6.13,0,0,1,179.67,273.28Zm11.11,0a4.7,4.7,0,1,0-4.68,4.64A4.54,4.54,0,0,0,190.78,273.28Z" transform="translate(-68.64 -101.58)"/>
      <path class="cls-1" d="M194.55,277.94l.64-1.35a6.23,6.23,0,0,0,4,1.4c2.08,0,3-.81,3-1.86,0-2.95-7.31-1.09-7.31-5.58,0-1.86,1.45-3.45,4.62-3.45a7.09,7.09,0,0,1,3.88,1.07l-.57,1.38a6.24,6.24,0,0,0-3.31-1c-2.05,0-2.93.86-2.93,1.91,0,2.95,7.31,1.11,7.31,5.54,0,1.85-1.48,3.44-4.67,3.44A7.23,7.23,0,0,1,194.55,277.94Z" transform="translate(-68.64 -101.58)"/>
      <path class="cls-1" d="M205.9,273.28a6.42,6.42,0,1,1,6.44,6.18A6.14,6.14,0,0,1,205.9,273.28Zm11.11,0a4.69,4.69,0,1,0-4.67,4.64A4.53,4.53,0,0,0,217,273.28ZM213.39,264h2.1l-2.89,2.25H211Z" transform="translate(-68.64 -101.58)"/>
      <path class="cls-1" d="M232.28,276.06c0,2.07-1.57,3.26-4.63,3.26h-5.76V267.24h5.42c2.78,0,4.33,1.17,4.33,3.12a2.85,2.85,0,0,1-1.62,2.69A2.93,2.93,0,0,1,232.28,276.06Zm-8.66-7.42v3.86h3.53c1.76,0,2.77-.65,2.77-1.93s-1-1.93-2.77-1.93Zm6.92,7.28c0-1.4-1-2-2.95-2h-4v4h4C229.5,277.92,230.54,277.32,230.54,275.92Z" transform="translate(-68.64 -101.58)"/>
      <path class="cls-1" d="M240.62,267.24h1.73v12.08h-1.73Z" transform="translate(-68.64 -101.58)"/>
      <path class="cls-1" d="M262.84,279.32l0-8.8-4.36,7.33h-.79l-4.37-7.28v8.75h-1.65V267.24h1.41l5,8.49,5-8.49h1.41l0,12.08Z" transform="translate(-68.64 -101.58)"/>
      <path class="cls-1" d="M268.64,267.24h1.72v12.08h-1.72Z" transform="translate(-68.64 -101.58)"/>
      <path class="cls-1" d="M283.26,277.82v1.5H274.5V267.24H283v1.5h-6.8v3.71h6.06v1.47h-6.06v3.9Z" transform="translate(-68.64 -101.58)"/>
      <path class="cls-1" d="M297,267.24v12.08h-1.42l-7.24-9v9h-1.73V267.24H288l7.24,9v-9Z" transform="translate(-68.64 -101.58)"/>
      <path class="cls-1" d="M301.1,267.24h1.72v12.08H301.1Z" transform="translate(-68.64 -101.58)"/>
      <path class="cls-1" d="M314.66,276.3h-6.42l-1.33,3h-1.78l5.47-12.08h1.71l5.49,12.08H316Zm-.61-1.38-2.6-5.92-2.61,5.92Z" transform="translate(-68.64 -101.58)"/>
    </g>
    <g>
      <path class="cls-1" d="M166.53,219.73v3h6v3h-6v4.7h-3.88v-13.7H173.4v3Z" transform="translate(-68.64 -101.58)"/>
      <path class="cls-1" d="M177.18,216.74h3.88v13.7h-3.88Z" transform="translate(-68.64 -101.58)"/>
      <path class="cls-1" d="M196.78,227.45v3h-11v-13.7h10.75v3h-6.91V222h6.08v2.9h-6.08v2.51Z" transform="translate(-68.64 -101.58)"/>
      <path class="cls-1" d="M200.9,216.74h3.87v10.63h6.54v3.07H200.9Z" transform="translate(-68.64 -101.58)"/>
      <path class="cls-1" d="M225.81,227.45v3h-11v-13.7h10.74v3h-6.91V222h6.09v2.9h-6.09v2.51Z" transform="translate(-68.64 -101.58)"/>
      <path class="cls-1" d="M235.21,225.47,233.76,227v3.43h-3.84v-13.7h3.84v5.69l5.31-5.69h4.26l-5.6,6.07,5.9,7.63h-4.51Z" transform="translate(-68.64 -101.58)"/>
    </g>
    <g>
      <path class="cls-2" d="M235.41,123.92C231.86,113,219.6,112,210,112c-8.38,0-20.21,0-28.59,0-1.68,0-1.08,4.88-1,4.88l18.41,0c7.25,0,15.45-.93,22.24,2.14,4.95,2.24,9.26,6.38,10,12,1.14,8.79-6.85,12.13-14.36,12.66-6.19.45-12.48.33-18.69.43-1.69,0-4.48,4.87-4.41,4.87,8.48-.13,18.51,1,26.57-2.11C228.61,143.53,238.64,133.85,235.41,123.92Z" transform="translate(-68.64 -101.58)"/>
      <path class="cls-2" d="M186.75,149.12l-3.27-3.23,19.36-19.71c.38-.37,4.12-4.19,3.3-4.74-1-.66-4.31,2.86-4.74,3.3q-12.54,12.77-25.09,25.54c-.1.1-.45.45-.88.92,0-10.22-.08-18.18-.13-29.63,0-1.71-4.87-.46-4.87-.41,0,13.89.1,18.61.15,32.5,0,1.72,4.88,4.47,4.88,4.41,0-1.44,0-2.81,0-4.16a24.87,24.87,0,0,0,2.31-2.19c.59-.59,1.17-1.18,1.75-1.78l27.1,26.76,4,3.9c.54.53,4.55-3.48,4-4Z" transform="translate(-68.64 -101.58)"/>
      <path class="cls-2" d="M182.48,160.84c-.16-.14-2.21-2-2.22-1.15,0,1.77,0,3.54,0,5.31,0,.45.58,1,.85,1.37a18.11,18.11,0,0,0,1.82,1.9c.15.14,2.21,2,2.21,1.15,0-1.77,0-3.54,0-5.31,0-.45-.58-1-.85-1.37A18.06,18.06,0,0,0,182.48,160.84Z" transform="translate(-68.64 -101.58)"/>
    </g>
  </g>
</svg>
